<svg width="256" height="256" viewBox="0 0 256 256" fill="none" xmlns="http://www.w3.org/2000/svg">
<path d="M71.0083 192.758H81.7799C86.532 192.758 90.6506 188.963 90.6506 183.902V153.855L62.1376 167.455V184.219C62.1376 188.963 65.9393 192.758 71.0083 192.758Z" fill="url(#paint0_linear_5_145)"/>
<path d="M178.942 152.647L150.576 166.518V184.173C150.576 188.902 154.358 193 159.401 193H221.491C226.219 193 230.316 189.217 230.316 184.173V173.454C230.316 168.725 226.534 164.627 221.491 164.627H178.942V152.647Z" fill="url(#paint1_linear_5_145)"/>
<path d="M225.274 91.7177C213.283 88.8775 202.554 97.7137 201.607 109.075L178.887 120.12V71.8362C178.887 67.1025 175.1 63 170.051 63H159.322C154.589 63 150.487 66.7869 150.487 71.8362V134.005L138.496 140.001V100.554L90.2157 122.644V91.4021H129.66C134.394 91.4021 138.496 87.6151 138.496 82.5659V71.8362C138.496 67.1025 134.709 63 129.66 63H70.9668C66.2334 63 62.1312 66.7869 62.1312 71.8362V135.583L45.4068 143.157C41.3045 140.317 35.9401 139.055 29.9445 140.317C22.6867 141.895 17.0067 147.891 15.4289 154.833C12.9045 167.457 22.3712 178.502 34.3623 178.502C44.4601 178.502 52.349 170.928 53.6112 161.145L119.247 130.849V171.244L210.443 126.431C213.598 128.325 217.069 129.587 220.856 129.587C232.847 129.587 242.314 118.542 239.474 106.234C238.211 99.2916 232.531 93.2956 225.274 91.7177Z" fill="url(#paint2_linear_5_145)"/>
<defs>
<linearGradient id="paint0_linear_5_145" x1="62.0501" y1="173.294" x2="90.4526" y2="173.294" gradientUnits="userSpaceOnUse">
<stop stop-color="#8A87F0"/>
<stop offset="1" stop-color="#CF8FFF"/>
</linearGradient>
<linearGradient id="paint1_linear_5_145" x1="150.814" y1="172.622" x2="230.606" y2="172.622" gradientUnits="userSpaceOnUse">
<stop stop-color="#8A87F0"/>
<stop offset="1" stop-color="#CF8FFF"/>
</linearGradient>
<linearGradient id="paint2_linear_5_145" x1="15.0897" y1="120.754" x2="240.081" y2="120.754" gradientUnits="userSpaceOnUse">
<stop stop-color="#8A87F0"/>
<stop offset="1" stop-color="#CF8FFF"/>
</linearGradient>
</defs>
</svg>
