<svg width="184" height="28" viewBox="0 0 184 28" fill="none" xmlns="http://www.w3.org/2000/svg">
<path d="M60.4361 25.3695V3.30886H75.4022V7.79576H65.4872V12.5631H73.625V16.6761H65.4872V25.3695H60.4361Z" fill="#50E4FF"/>
<path d="M78.1149 25.3695V3.30886H83.2595V20.8826H93.9228V25.3695H78.1149Z" fill="#50E4FF"/>
<path d="M101.406 14.1524C101.406 12.8437 101.686 11.4415 102.154 10.2263C102.622 8.91764 103.37 7.79592 104.306 6.67419C105.241 5.64595 106.457 4.80465 107.766 4.15031C109.17 3.49597 110.666 3.21554 112.443 3.21554C114.501 3.21554 116.278 3.68293 117.869 4.52422C119.365 5.45899 120.488 6.58072 121.236 7.98288L117.307 10.6937C116.933 9.94589 116.559 9.29155 115.998 8.82417C115.437 8.35678 114.875 8.07635 114.221 7.8894C113.566 7.70244 112.911 7.60897 112.35 7.60897C111.414 7.60897 110.479 7.79592 109.824 8.16983C109.076 8.54374 108.515 9.1046 108.047 9.66546C107.579 10.3198 107.205 11.0676 107.018 11.8154C106.831 12.5633 106.644 13.4045 106.644 14.1524C106.644 14.9937 106.738 15.835 107.018 16.6762C107.299 17.5175 107.673 18.1719 108.141 18.8262C108.608 19.4806 109.263 19.9479 110.011 20.3219C110.76 20.6958 111.508 20.8827 112.443 20.8827C113.098 20.8827 113.659 20.7892 114.314 20.6023C114.969 20.4153 115.53 20.0414 116.091 19.6675C116.653 19.2001 117.027 18.6393 117.307 17.8914L121.517 20.3219C121.049 21.4436 120.394 22.2849 119.365 23.1262C118.336 23.874 117.214 24.4349 115.998 24.9022C114.782 25.2761 113.472 25.4631 112.256 25.4631C110.666 25.4631 109.17 25.1827 107.86 24.5283C106.55 23.874 105.334 23.0327 104.399 21.911C103.464 20.7892 102.715 19.574 102.154 18.2654C101.686 16.9567 101.406 15.5545 101.406 14.1524Z" fill="#50E4FF"/>
<path d="M139.476 25.3697H134.518V16.3959C134.518 15.3677 134.331 14.6199 133.864 14.1525C133.396 13.6851 132.835 13.4047 132.18 13.4047C131.806 13.4047 131.432 13.4982 130.964 13.7786C130.496 14.059 130.029 14.3394 129.654 14.7134C129.28 15.0873 129 15.6481 128.719 16.209V25.4632H123.668V2.6548H128.625V12.0025C129.187 11.0677 130.029 10.3199 130.964 9.75906C131.993 9.1982 133.022 9.01124 134.238 9.01124C135.36 9.01124 136.296 9.1982 136.95 9.57211C137.605 9.94602 138.166 10.4134 138.447 11.0677C138.728 11.7221 139.008 12.2829 139.195 13.0308C139.382 13.7786 139.382 14.4329 139.382 15.1807V25.3697H139.476Z" fill="#50E4FF"/>
<path d="M141.721 20.6024C141.721 19.5741 142.001 18.6394 142.656 17.7981C143.217 16.9568 144.059 16.3959 145.182 15.9285C146.211 15.4611 147.427 15.2742 148.83 15.2742C149.484 15.2742 150.139 15.3677 150.794 15.4611C151.449 15.5546 152.01 15.7416 152.478 15.9285V15.1807C152.478 14.3394 152.197 13.6851 151.636 13.2177C151.075 12.7503 150.233 12.5633 149.204 12.5633C148.268 12.5633 147.427 12.7503 146.678 13.0307C145.836 13.3112 144.995 13.7786 144.153 14.3394L142.656 11.1612C143.779 10.4134 144.901 9.94599 146.024 9.57208C147.146 9.19817 148.456 9.01122 149.765 9.01122C152.197 9.01122 154.161 9.57208 155.471 10.6938C156.874 11.8155 157.529 13.4981 157.529 15.6481V19.8546C157.529 20.322 157.622 20.6959 157.716 20.8828C157.809 21.0698 158.183 21.1633 158.558 21.2567V25.3697C158.183 25.4632 157.716 25.5567 157.435 25.5567C157.061 25.5567 156.78 25.6501 156.5 25.6501C155.564 25.6501 154.816 25.4632 154.348 25.0893C153.881 24.7154 153.6 24.248 153.413 23.5937L153.32 22.8458C152.571 23.7806 151.729 24.5284 150.7 24.9958C149.672 25.4632 148.643 25.7436 147.52 25.7436C146.398 25.7436 145.462 25.5567 144.62 25.0893C143.779 24.6219 143.124 24.061 142.563 23.2197C142.001 22.3784 141.721 21.5372 141.721 20.6024ZM151.636 21.1632C151.823 20.9763 152.01 20.7893 152.197 20.6024C152.384 20.4154 152.384 20.135 152.384 19.948V18.5459C152.01 18.3589 151.542 18.2655 150.981 18.172C150.513 18.0785 150.046 18.0785 149.578 18.0785C148.643 18.0785 147.894 18.2655 147.333 18.6394C146.772 19.0133 146.398 19.5741 146.398 20.2285C146.398 20.6024 146.491 20.8828 146.678 21.2567C146.865 21.5372 147.146 21.8176 147.52 22.0045C147.894 22.1915 148.268 22.285 148.83 22.285C149.391 22.285 149.859 22.1915 150.326 22.0045C150.888 21.6306 151.262 21.4437 151.636 21.1632Z" fill="#50E4FF"/>
<path d="M171.372 13.3115C170.156 13.3115 169.034 13.4984 168.099 13.8723C167.163 14.2463 166.415 14.8071 165.947 15.5549V25.37H160.99V9.29197H165.573V12.3767C166.134 11.255 166.883 10.4137 167.724 9.75935C168.66 9.10501 169.595 8.82458 170.531 8.82458C170.718 8.82458 170.905 8.82458 170.998 8.82458C171.092 8.82458 171.185 8.82458 171.279 8.82458V13.3115H171.372Z" fill="#50E4FF"/>
<path d="M184 24.5287C183.532 24.7156 183.065 24.9026 182.503 25.0895C181.942 25.2765 181.381 25.4634 180.82 25.5569C180.258 25.6504 179.604 25.7439 179.042 25.7439C178.201 25.7439 177.452 25.6504 176.798 25.37C176.143 25.0895 175.582 24.6221 175.114 23.9678C174.74 23.3135 174.553 22.4722 174.553 21.4439V13.031H172.495V9.2919H174.553V4.05718H179.51V9.2919H182.878V13.031H179.51V19.6679C179.51 20.2287 179.604 20.6026 179.884 20.7896C180.165 20.9765 180.539 21.1635 180.913 21.1635C181.287 21.1635 181.662 21.07 182.036 20.9765C182.41 20.8831 182.784 20.6961 183.065 20.6026L184 24.5287Z" fill="#50E4FF"/>
<path d="M12.0574 27.9319H14.3696C15.3897 27.9319 16.2738 27.1164 16.2738 26.029V19.5727L10.1533 22.495V26.0969C10.1533 27.1164 10.9693 27.9319 12.0574 27.9319Z" fill="url(#paint0_linear_858_6186)"/>
<path d="M35.3152 19.301L29.1947 22.2913V26.0971C29.1947 27.1165 30.0108 28 31.0988 28H44.4959C45.516 28 46.4001 27.1845 46.4001 26.0971V23.7864C46.4001 22.767 45.584 21.8835 44.4959 21.8835H35.3152V19.301Z" fill="url(#paint1_linear_858_6186)"/>
<path d="M45.3121 6.18446C42.7279 5.57281 40.4157 7.47572 40.2117 9.92232L35.3153 12.301V1.90291C35.3153 0.883494 34.4992 0 33.4111 0H31.0989C30.0788 0 29.1948 0.815533 29.1948 1.90291V15.2912L26.6106 16.5825V8.08737L16.2057 12.8446V6.1165H24.7064C25.7265 6.1165 26.6106 5.30096 26.6106 4.21358V1.90291C26.6106 0.883494 25.7945 0 24.7064 0H12.0574C11.0373 0 10.1532 0.815533 10.1532 1.90291V15.631L6.54896 17.2621C5.66489 16.6505 4.5088 16.3786 3.21669 16.6505C1.65257 16.9903 0.42847 18.2815 0.0884431 19.7767C-0.4556 22.4951 1.58456 24.8738 4.16877 24.8738C6.34494 24.8738 8.04508 23.2427 8.3171 21.1359L22.4622 14.6116V23.3106L42.1158 13.6602C42.7959 14.0679 43.5439 14.3398 44.36 14.3398C46.9442 14.3398 48.9844 11.9611 48.3723 9.31067C48.1003 7.81552 46.8762 6.52426 45.3121 6.18446Z" fill="url(#paint2_linear_858_6186)"/>
<defs>
<linearGradient id="paint0_linear_858_6186" x1="-0.564267" y1="13.9911" x2="182.722" y2="13.9911" gradientUnits="userSpaceOnUse">
<stop stop-color="#8A87F0"/>
<stop offset="1" stop-color="#CF8FFF"/>
</linearGradient>
<linearGradient id="paint1_linear_858_6186" x1="0.547636" y1="13.86" x2="184.67" y2="13.86" gradientUnits="userSpaceOnUse">
<stop stop-color="#8A87F0"/>
<stop offset="1" stop-color="#CF8FFF"/>
</linearGradient>
<linearGradient id="paint2_linear_858_6186" x1="0.0153373" y1="12.4376" x2="48.5032" y2="12.4376" gradientUnits="userSpaceOnUse">
<stop stop-color="#8A87F0"/>
<stop offset="1" stop-color="#CF8FFF"/>
</linearGradient>
</defs>
</svg>
