<svg width="36" height="36" viewBox="0 0 36 36" fill="none" xmlns="http://www.w3.org/2000/svg">
<path d="M31.2188 27.8438H7.03125V5.90625C7.03125 5.75156 6.90469 5.625 6.75 5.625H4.78125C4.62656 5.625 4.5 5.75156 4.5 5.90625V30.0938C4.5 30.2484 4.62656 30.375 4.78125 30.375H31.2188C31.3734 30.375 31.5 30.2484 31.5 30.0938V28.125C31.5 27.9703 31.3734 27.8438 31.2188 27.8438ZM9.5625 25.5938H28.4062C28.5609 25.5938 28.6875 25.4672 28.6875 25.3125V9.98438C28.6875 9.73125 28.3816 9.6082 28.2059 9.78398L20.8125 17.1773L16.4039 12.818C16.351 12.7656 16.2797 12.7363 16.2053 12.7363C16.1309 12.7363 16.0595 12.7656 16.0066 12.818L9.36211 19.4836C9.3363 19.5094 9.31587 19.5402 9.30199 19.5739C9.28811 19.6077 9.28106 19.6439 9.28125 19.6805V25.3125C9.28125 25.4672 9.40781 25.5938 9.5625 25.5938Z" fill="white"/>
</svg>
