<svg width="36" height="36" viewBox="0 0 36 36" fill="none" xmlns="http://www.w3.org/2000/svg">
<path d="M30.3749 18.2108H17.789V5.62491C17.789 5.47022 17.6624 5.34366 17.5077 5.34366H16.5936C14.7469 5.34063 12.9178 5.7028 11.2115 6.40932C9.50522 7.11584 7.95549 8.15277 6.65146 9.46046C5.36724 10.7407 4.34398 12.2583 3.63857 13.9288C2.90453 15.6614 2.52786 17.5244 2.53115 19.4062C2.52813 21.2529 2.89029 23.082 3.59681 24.7883C4.30333 26.4946 5.34026 28.0443 6.64795 29.3483C7.93818 30.6386 9.44287 31.6546 11.1163 32.3612C12.8489 33.0953 14.7119 33.4719 16.5936 33.4687C18.4404 33.4717 20.2695 33.1095 21.9758 32.403C23.6821 31.6965 25.2318 30.6595 26.5358 29.3519C27.8261 28.0616 28.8421 26.5569 29.5487 24.8835C30.2828 23.1509 30.6594 21.2879 30.6562 19.4062V18.4921C30.6562 18.3374 30.5296 18.2108 30.3749 18.2108ZM24.8097 27.696C23.721 28.7761 22.43 29.6309 21.0105 30.2112C19.591 30.7916 18.0709 31.0861 16.5374 31.078C13.4401 31.064 10.5292 29.8511 8.33896 27.6608C6.13467 25.4566 4.92177 22.5245 4.92177 19.4062C4.92177 16.2878 6.13467 13.3558 8.33896 11.1515C10.2585 9.23194 12.73 8.06124 15.3983 7.79405V20.6015H28.2058C27.9351 23.2839 26.7538 25.7694 24.8097 27.696ZM33.4687 16.2562L33.3772 15.2648C33.0784 12.0269 31.6405 8.97178 29.3272 6.66553C27.0124 4.35505 23.9635 2.92514 20.7069 2.62256L19.712 2.53116C19.5468 2.5171 19.4061 2.64366 19.4061 2.80889V16.3124C19.4061 16.4671 19.5327 16.5937 19.6874 16.5937L33.1874 16.5585C33.3526 16.5585 33.4827 16.4179 33.4687 16.2562ZM21.7897 14.2101V5.18897C24.0044 5.6525 26.0367 6.74927 27.6397 8.346C29.2464 9.94913 30.3468 11.9882 30.8038 14.1855L21.7897 14.2101Z" fill="white"/>
</svg>
