<svg width="14" height="14" viewBox="0 0 14 14" fill="none" xmlns="http://www.w3.org/2000/svg">
<g id="github-mark 1" clip-path="url(#clip0_837_6075)">
<path id="Vector" fill-rule="evenodd" clip-rule="evenodd" d="M6.97914 0C3.11986 0 0 3.20833 0 7.17748C0 10.3502 1.999 13.0359 4.77214 13.9864C5.11886 14.0579 5.24586 13.832 5.24586 13.642C5.24586 13.4756 5.23443 12.9052 5.23443 12.311C3.293 12.7388 2.88871 11.4554 2.88871 11.4554C2.57671 10.6235 2.11443 10.4097 2.11443 10.4097C1.479 9.97004 2.16071 9.97004 2.16071 9.97004C2.86557 10.0176 3.23543 10.7068 3.23543 10.7068C3.85929 11.8 4.86457 11.4911 5.269 11.3009C5.32671 10.8375 5.51171 10.5166 5.70814 10.3384C4.15971 10.172 2.53057 9.55413 2.53057 6.79715C2.53057 6.01285 2.80771 5.37119 3.24686 4.87215C3.17757 4.69394 2.93486 3.95704 3.31629 2.97077C3.31629 2.97077 3.90557 2.7806 5.23429 3.70752C5.80316 3.55041 6.38982 3.47049 6.97914 3.46981C7.56843 3.46981 8.16914 3.55308 8.72386 3.70752C10.0527 2.7806 10.642 2.97077 10.642 2.97077C11.0234 3.95704 10.7806 4.69394 10.7113 4.87215C11.162 5.37119 11.4277 6.01285 11.4277 6.79715C11.4277 9.55413 9.79857 10.1601 8.23857 10.3384C8.49286 10.5642 8.71229 10.9919 8.71229 11.6693C8.71229 12.6318 8.70086 13.4043 8.70086 13.6418C8.70086 13.832 8.828 14.0579 9.17457 13.9866C11.9477 13.0358 13.9467 10.3502 13.9467 7.17748C13.9581 3.20833 10.8269 0 6.97914 0Z" fill="#24292F"/>
</g>
<defs>
<clipPath id="clip0_837_6075">
<rect width="14" height="14" fill="white"/>
</clipPath>
</defs>
</svg>
